# AST/ASF file generated using VICON BodyLanguage
# -----------------------------------------------
:version 1.10
:name VICON
:units
  mass 1.0
  length 0.45
  angle deg
:documentation
   .ast/.asf automatically generated from VICON data using
   VICON BodyBuilder and BodyLanguage model FoxedUp or BRILLIANT.MOD
:root
   order TX TY TZ RX RY RZ
   axis XYZ
   position 0 0 0  
   orientation 0 0 0 
:bonedata
  begin
     id 1 
     name lhipjoint
     direction 0.624716 -0.669793 0.401383 
     length 2.38238 
     axis 0 0 0  XYZ
  end
  begin
     id 2 
     name lfemur
     direction 0.34202 -0.939693 0  
     length 6.4574  
     axis 0 0 20  XYZ
    dof rx ry rz
    limits (-160.0 20.0)
           (-70.0 70.0)
           (-60.0 70.0)
  end
  begin
     id 3 
     name ltibia
     direction 0.34202 -0.939693 0   
     length 7.68739   
     axis 0 0 20   XYZ
    dof rx
    limits (-10.0 170.0)
  end
  begin
     id 4 
     name lfoot
     direction 0.0681309 -0.187188 0.979959   
     length 2.46615   
     axis -90 7.62852e-016 20   XYZ
    dof rx rz
    limits (-45.0 90.0)
           (-70.0 20.0)
  end
  begin
     id 5 
     name ltoes
     direction 1.53566e-011 -4.21819e-011 1   
     length 1.2376   
     axis -90 7.62852e-016 20   XYZ
    dof rx
    limits (-90.0 20.0)
  end
  begin
     id 6 
     name rhipjoint
     direction -0.644473 -0.655875 0.393043   
     length 2.43293  
     axis 0 0 0  XYZ 
  end
  begin
     id 7 
     name rfemur
     direction -0.34202 -0.939693 0   
     length 6.7025   
     axis 0 0 -20   XYZ
    dof rx ry rz
    limits (-160.0 20.0)
           (-70.0 70.0)
           (-70.0 60.0)
  end
  begin
     id 8 
     name rtibia
     direction -0.34202 -0.939693 0   
     length 7.80547   
     axis 0 0 -20   XYZ
    dof rx
    limits (-10.0 170.0)
 end
 begin
     id 9 
     name rfoot
     direction -0.0756734 -0.207911 0.975216   
     length 2.40315  
     axis -90 -7.62852e-016 -20   XYZ
    dof rx rz
    limits (-45.0 90.0)
           (-20.0 70.0)
  end
  begin
     id 10 
     name rtoes
     direction -1.5353e-011 -4.21879e-011 1   
     length 1.20477   
     axis -90 -7.62852e-016 -20   XYZ
    dof rx
    limits (-90.0 20.0)
  end
  begin
     id 11 
     name lowerback
     direction 0.0160353 0.987463 -0.157037   
     length 2.18572   
     axis 0 0 0   XYZ
    dof rx ry rz
    limits (-20.0 45.0)
           (-30.0 30.0)
           (-30.0 30.0)
  end
  begin
     id 12 
     name upperback
     direction -0.00499661 0.999756 0.0215076   
     length 2.18016   
     axis 0 0 0   XYZ
    dof rx ry rz
    limits (-20.0 45.0)
           (-30.0 30.0)
           (-30.0 30.0)
  end
  begin
     id 13 
     name thorax
     direction -0.00921346 0.995333 0.0960619   
     length 2.24923   
     axis 0 0 0   XYZ
    dof rx ry rz
    limits (-20.0 45.0)
           (-30.0 30.0)
           (-30.0 30.0)
  end
  begin
     id 14 
     name lowerneck
     direction 0.0274184 0.991181 0.12965   
     length 1.70911   
     axis 0 0 0   XYZ
    dof rx ry rz
    limits (-20.0 45.0)
           (-30.0 30.0)
           (-30.0 30.0)
  end
  begin
     id 15 
     name upperneck
     direction 0.0015627 0.999959 -0.00893559   
     length 1.69312   
     axis 0 0 0   XYZ
    dof rx ry rz
    limits (-20.0 45.0)
           (-30.0 30.0)
           (-30.0 30.0)
  end
  begin
     id 16
     name head
     direction -0.00230242 0.999856 -0.0168327  
     length 1.80241  
     axis 0 0 0   XYZ
    dof rx ry rz
    limits (-20.0 45.0)
           (-30.0 30.0)
           (-30.0 30.0)
  end
  begin
     id 17 
     name lclavicle
     direction 0.955523 0.290741 -0.0494489  
     length 3.84275  
     axis 0 0 0   XYZ
    dof ry rz
    limits (-20.0 10.0)
           (0.0 20.0)
  end
  begin
     id 18 
     name lhumerus
     direction 1 -4.48967e-011 -3.18382e-028   
     length 5.17714   
     axis 180 -30 -90   XYZ
    dof rx ry rz
    limits (-60.0 90.0)
           (-90.0 90.0)
           (-90.0 90.0)
  end
  begin
     id 19
     name lradius
     direction 1 -4.48968e-011 -2.22911e-027   
     length 3.43679   
     axis 180 -30 -90   XYZ
    dof rx
    limits (-10.0 170.0)
  end
  begin
     id 20
     name lwrist
     direction 1 -4.48951e-011 -6.32245e-027   
     length 1.7184   
     axis 3.57107e-015 90 90   XYZ
    dof ry
    limits (-180.0 0.0)
 end
  begin
     id 21 
     name lhand
     direction 1 -4.48924e-011 -1.26431e-026   
     length 0.573117   
     axis 8.06912e-015 90 90   XYZ
    dof rx rz
    limits (-90.0 90.0)
           (-45.0 45.0)
  end
  begin
     id 22 
     name lfingers
     direction 1 -4.49001e-011 -2.52965e-026   
     length 0.462062   
     axis 1.61381e-014 90 90   XYZ
    dof rx
    limits (0.0 90.0)
  end
  begin
     id 23
     name lthumb
     direction 0.707107 -6.35008e-011 0.707107   
     length 0.663431   
     axis -90 45 -1.62303e-014   XYZ
    dof rx rz
    limits (-45.0 45.0)
           (-45.0 45.0)
  end
  begin
     id 24 
     name rclavicle
     direction -0.963917 0.256881 -0.0698287   
     length 3.73057  
     axis 0 0 0   XYZ 
    dof ry rz
    limits (-10.0 20.0)
           (-20.0 0.0)
  end
  begin
     id 25 
     name rhumerus
     direction -1 -4.48962e-011 -2.73982e-027  
     length 5.23908   
     axis 180 30 90   XYZ
    dof rx ry rz
    limits (-90.0 60.0)
           (-90.0 90.0)
           (-90.0 90.0)
  end
  begin
     id 26 
     name rradius
     direction -1 -4.48968e-011 -4.33218e-027   
     length 3.46485   
     axis 180 30 90   XYZ
    dof rx
    limits (-10.0 170.0)
  end
  begin
     id 27 
     name rwrist
     direction -1 -4.48989e-011 -6.32372e-027   
     length 1.73243   
     axis 3.57107e-015 -90 -90   XYZ
    dof ry
    limits (-180.0 0.0)
  end
  begin
     id 28
     name rhand
     direction -1 -4.48948e-011 -1.26448e-026   
     length 0.608752   
     axis 8.06912e-015 -90 -90   XYZ
    dof rx rz
    limits (-90.0 90.0)
           (-45.0 45.0)
  end
  begin
     id 29
     name rfingers
     direction -1 -4.48962e-011 -2.52913e-026   
     length 0.490792   
     axis 1.61381e-014 -90 -90   XYZ
    dof rx
    limits (0.0 90.0)
  end
  begin
     id 30
     name rthumb
     direction -0.707107 -6.34878e-011 0.707107   
     length 0.704682   
     axis -90 -45 1.62303e-014   XYZ
    dof rx rz
    limits (-45.0 45.0)
           (-45.0 45.0)
  end
:hierarchy
  begin
    root lhipjoint rhipjoint lowerback
    lhipjoint lfemur
    lfemur ltibia
    ltibia lfoot
    lfoot ltoes
    rhipjoint rfemur
    rfemur rtibia
    rtibia rfoot
    rfoot rtoes
    lowerback upperback
    upperback thorax
    thorax lowerneck lclavicle rclavicle
    lowerneck upperneck
    upperneck head
    lclavicle lhumerus
    lhumerus lradius
    lradius lwrist
    lwrist lhand lthumb
    lhand lfingers
    rclavicle rhumerus
    rhumerus rradius
    rradius rwrist
    rwrist rhand rthumb
    rhand rfingers
  end

#!OML:ASF G:\JayActor3\Patient Classification 1\Patient 1\Session 6\male.ASF
:FULLY-SPECIFIED
:DEGREES
459
root 37.5479 16.0822 3.86654 167.655 -44.5317 -168.935
lowerback 1.45244 1.29517 8.39149
upperback -4.52012 1.98311 0.661119
thorax -5.28488 0.580864 -4.11614
lowerneck -4.51292 5.48368 5.97495
upperneck 2.05294 7.21834 -8.72573
head 2.0723 3.44703 -3.67988
rclavicle -2.70347e-014 -3.18055e-014
rhumerus -41.5453 22.1903 -94.8852
rradius 37.1233
rwrist 3.84853
rhand -11.9064 -3.00281
rfingers 7.12502
rthumb 14.1472 -32.5011
lclavicle -2.70347e-014 -3.18055e-014
lhumerus -47.7172 -2.35377 77.5109
lradius 26.9336
lwrist 27.387
lhand -7.20509 11.8699
lfingers 7.12502
lthumb 18.6736 40.9936
rfemur 23.1115 -1.37082 27.8052
rtibia 17.4501
rfoot -8.89475 -8.20535
rtoes -10.1525
lfemur -17.1825 13.1754 -10.6514
ltibia 26.8677
lfoot -10.1337 8.87932
ltoes -6.60204
460
root 37.4479 16.0925 3.81827 167.642 -44.4795 -169.007
lowerback 1.41746 1.18599 8.19469
upperback -4.52639 1.82592 0.663142
thorax -5.29568 0.510943 -3.99536
lowerneck -4.49623 5.53634 6.01389
upperneck 2.20123 7.29626 -8.68557
head 2.1247 3.48642 -3.66934
rclavicle 4.17448e-015 -3.37934e-014
rhumerus -41.8556 21.8915 -94.7545
rradius 37.1841
rwrist 3.68903
rhand -11.8919 -2.98367
rfingers 7.12502
rthumb 14.1612 -32.481
lclavicle 4.17448e-015 -3.37934e-014
lhumerus -47.2993 -2.58559 77.5801
lradius 27.1386
lwrist 27.4545
lhand -7.2443 11.8197
lfingers 7.12502
lthumb 18.6358 40.947
rfemur 23.0268 -1.41234 27.4798
rtibia 18.1834
rfoot -8.14489 -8.33521
rtoes -9.64057
lfemur -16.7635 13.3199 -10.7523
ltibia 26.9872
lfoot -10.0494 8.7848
ltoes -6.06847
461
root 37.3489 16.1024 3.77035 167.647 -44.4362 -169.101
lowerback 1.39326 1.07575 7.9775
upperback -4.53746 1.66774 0.656623
thorax -5.31694 0.440768 -3.87231
lowerneck -4.46374 5.58024 6.056
upperneck 2.33593 7.36189 -8.64325
head 2.16876 3.52037 -3.65963
rclavicle -1.3418e-014 -2.90226e-014
rhumerus -42.1492 21.534 -94.5939
rradius 37.2303
rwrist 3.53368
rhand -11.9292 -2.96453
rfingers 7.12502
rthumb 14.1253 -32.4644
lclavicle -1.3418e-014 -2.90226e-014
lhumerus -46.8786 -2.83965 77.6373
lradius 27.3786
lwrist 27.4945
lhand -7.32267 11.7618
lfingers 7.12502
lthumb 18.5605 40.8964
rfemur 22.8893 -1.46109 27.1352
rtibia 19.0012
rfoot -7.40087 -8.4906
rtoes -9.02136
lfemur -16.3376 13.4312 -10.8718
ltibia 27.0853
lfoot -9.97631 8.69817
ltoes -5.47397
462
root 37.251 16.1116 3.72248 167.667 -44.3845 -169.218
lowerback 1.38493 0.970545 7.74427
upperback -4.55597 1.51725 0.640765
thorax -5.35317 0.374194 -3.75076
lowerneck -4.41314 5.6183 6.10548
upperneck 2.45299 7.4188 -8.59667
head 2.20308 3.55087 -3.65073
rclavicle -6.95746e-015 -6.36111e-015
rhumerus -42.4353 21.1149 -94.41
rradius 37.26
rwrist 3.39875
rhand -12.025 -2.94203
rfingers 7.12502
rthumb 14.0329 -32.4483
lclavicle -6.95746e-015 -6.36111e-015
lhumerus -46.4594 -3.11025 77.671
lradius 27.6491
lwrist 27.5154
lhand -7.45061 11.6991
lfingers 7.12502
lthumb 18.4374 40.8454
rfemur 22.6969 -1.50215 26.7762
rtibia 19.9127
rfoot -6.65568 -8.6511
rtoes -8.25274
lfemur -15.897 13.5061 -10.9993
ltibia 27.1623
lfoot -9.92128 8.63328
ltoes -4.77643
463
root 37.1545 16.1204 3.67481 167.689 -44.3141 -169.334
lowerback 1.39414 0.86992 7.512
upperback -4.58248 1.37455 0.622469
thorax -5.40593 0.310563 -3.63286
lowerneck -4.34796 5.65563 6.15174
upperneck 2.55705 7.47441 -8.54224
head 2.22969 3.5814 -3.63889
rclavicle 1.91827e-014 -1.35174e-014
rhumerus -42.7168 20.6599 -94.2127
rradius 37.2694
rwrist 3.28008
rhand -12.1915 -2.92258
rfingers 7.12502
rthumb 13.8725 -32.4399
lclavicle 1.91827e-014 -1.35174e-014
lhumerus -46.0457 -3.38215 77.677
lradius 27.9431
lwrist 27.5311
lhand -7.57198 11.6557
lfingers 7.12502
lthumb 18.3206 40.8129
rfemur 22.4429 -1.52908 26.4241
rtibia 20.9219
rfoot -5.90921 -8.8137
rtoes -7.36973
lfemur -15.4458 13.563 -11.1152
ltibia 27.2215
lfoot -9.87417 8.58394
ltoes -4.00613
464
root 37.0597 16.1287 3.62775 167.712 -44.217 -169.436
lowerback 1.42164 0.775151 7.29316
upperback -4.62335 1.24173 0.60535
thorax -5.48225 0.249901 -3.52187
lowerneck -4.26722 5.6934 6.19437
upperneck 2.65459 7.53081 -8.48229
head 2.25085 3.61285 -3.62478
rclavicle -3.926e-014 -4.09496e-014
rhumerus -43.0006 20.1785 -94.0077
rradius 37.2574
rwrist 3.17932
rhand -12.4269 -2.90083
rfingers 7.12502
rthumb 13.6455 -32.4335
lclavicle -3.926e-014 -4.09496e-014
lhumerus -45.6422 -3.64591 77.6517
lradius 28.2544
lwrist 27.546
lhand -7.68439 11.6601
lfingers 7.12502
lthumb 18.2125 40.8275
rfemur 22.1108 -1.54383 26.0876
rtibia 22.0324
rfoot -5.16314 -8.96973
rtoes -6.33423
lfemur -14.9957 13.5963 -11.2064
ltibia 27.2646
lfoot -9.84092 8.55491
ltoes -3.10976
465
root 36.966 16.1366 3.581 167.748 -44.0827 -169.545
lowerback 1.45869 0.691613 7.07856
upperback -4.67258 1.12451 0.585071
thorax -5.57025 0.196156 -3.41727
lowerneck -4.17839 5.732 6.23285
upperneck 2.74534 7.58816 -8.41508
head 2.26769 3.64516 -3.60751
rclavicle -4.48259e-014 -2.06736e-014
rhumerus -43.2923 19.6796 -93.8005
rradius 37.2335
rwrist 3.09805
rhand -12.7217 -2.8787
rfingers 7.12502
rthumb 13.3614 -32.4303
lclavicle -4.48259e-014 -2.06736e-014
lhumerus -45.2392 -3.90671 77.5986
lradius 28.5727
lwrist 27.5765
lhand -7.79706 11.7246
lfingers 7.12502
lthumb 18.1041 40.902
rfemur 21.7039 -1.55534 25.7383
rtibia 23.2444
rfoot -4.40073 -9.10629
rtoes -5.22098
lfemur -14.5369 13.6447 -11.288
ltibia 27.2938
lfoot -9.83329 8.53557
ltoes -2.21619
466
root 36.8733 16.1438 3.53492 167.805 -43.9234 -169.669
lowerback 1.49993 0.614673 6.85967
upperback -4.72949 1.01573 0.562162
thorax -5.66718 0.146341 -3.31325
lowerneck -4.07466 5.77039 6.2702
upperneck 2.82274 7.64528 -8.35701
head 2.27777 3.67748 -3.59368
rclavicle 5.4964e-014 1.03368e-014
rhumerus -43.5828 19.1699 -93.5812
rradius 37.1925
rwrist 3.01644
rhand -13.0437 -2.87439
rfingers 7.12502
rthumb 13.0511 -32.4461
lclavicle 5.4964e-014 1.03368e-014
lhumerus -44.8367 -4.14922 77.5184
lradius 28.8931
lwrist 27.6204
lhand -7.92287 11.8539
lfingers 7.12502
lthumb 17.9831 41.0425
rfemur 21.2158 -1.58369 25.3573
rtibia 24.5573
rfoot -3.61975 -9.22638
rtoes -4.03748
lfemur -14.0759 13.7162 -11.3729
ltibia 27.309
lfoot -9.86729 8.5128
ltoes -1.38319
467
root 36.7814 16.1506 3.48942 167.879 -43.7329 -169.806
lowerback 1.54211 0.546632 6.64333
upperback -4.78854 0.918361 0.535371
thorax -5.76502 0.102117 -3.21509
lowerneck -3.96372 5.80579 6.31132
upperneck 2.89227 7.69835 -8.31121
head 2.28444 3.70767 -3.58532
rclavicle -1.43125e-014 -2.78299e-014
rhumerus -43.8682 18.6482 -93.3489
rradius 37.1399
rwrist 2.92799
rhand -13.3469 -2.89255
rfingers 7.12502
rthumb 12.7588 -32.4827
lclavicle -1.43125e-014 -2.78299e-014
lhumerus -44.4291 -4.37924 77.4138
lradius 29.211
lwrist 27.6817
lhand -8.0506 12.0513
lfingers 7.12502
lthumb 17.8601 41.2512
rfemur 20.6491 -1.63549 24.9399
rtibia 25.9691
rfoot -2.80675 -9.33824
rtoes -2.82993
lfemur -13.6049 13.8181 -11.4576
ltibia 27.3086
lfoot -9.95758 8.49517
ltoes -0.700634
